<svg width="30" height="30" viewBox="0 0 30 30" fill="none" xmlns="http://www.w3.org/2000/svg">
<path d="M21.9782 25.7973C21.855 25.0662 21.2076 21.5026 19.6161 17.1304C23.5334 16.5036 26.9282 17.5789 27.1792 17.661C26.915 19.3009 26.3173 20.8691 25.4226 22.2685C24.528 23.6681 23.3556 24.869 21.9782 25.7973ZM15.1966 27.8704C12.3735 27.8746 9.63789 26.8902 7.46454 25.0883C7.62559 25.2178 7.73769 25.2999 7.73769 25.2999C7.73769 25.2999 10.0635 20.2268 17.2618 17.7194C17.2871 17.7083 17.3155 17.7036 17.3424 17.6941C19.0508 22.131 19.755 25.8462 19.935 26.9073C18.4369 27.5436 16.8243 27.8712 15.1966 27.8704ZM3.06085 15.7331C3.06085 15.6036 3.06717 15.4773 3.07032 15.3494C3.28506 15.3541 9.2819 15.4915 15.5298 13.6204C15.8771 14.2994 16.2087 14.9941 16.515 15.6841C16.3541 15.7275 16.1945 15.7759 16.0366 15.8294C9.48717 17.9452 6.16506 23.8362 6.16506 23.8362L6.1698 23.8426C4.16411 21.6181 3.05724 18.7282 3.06085 15.7331ZM10.0177 4.7594C11.6531 7.00156 13.1582 9.33594 14.5256 11.751C8.69927 13.2983 3.64032 13.2383 3.32138 13.232C3.708 11.3988 4.51372 9.67993 5.67545 8.21003C6.83717 6.74014 8.32339 5.5591 10.0177 4.7594ZM12.2898 3.9494L12.2882 3.95413L12.2503 3.96045L12.2898 3.9494ZM23.2113 6.62729C23.1813 6.67308 21.4539 9.30361 16.8718 11.0199C15.5237 8.55951 14.0092 6.19401 12.3387 3.93992C14.2339 3.47677 16.2129 3.4793 18.1069 3.94728C20.0007 4.41526 21.7533 5.33478 23.2145 6.62729H23.2113ZM27.3292 15.6115C27.1555 15.5736 23.0471 14.6894 18.8771 15.2136L18.615 14.5899C18.3617 13.9955 18.0927 13.4079 17.8082 12.8278C22.6003 10.8699 24.5455 8.0594 24.5692 8.02624C26.3312 10.1638 27.3055 12.8415 27.3292 15.6115ZM29.1197 12.8736C28.9312 11.958 28.653 11.0632 28.2892 10.202C27.2163 7.66352 25.4277 5.49211 23.1418 3.95255C22.3821 3.43807 21.5741 2.99865 20.7292 2.64045C18.9782 1.90194 17.097 1.52148 15.1966 1.52148C13.2962 1.52148 11.4151 1.90194 9.66401 2.64045C7.12689 3.71574 4.95606 5.50376 3.41454 7.78782C1.8276 10.1332 0.981587 12.9012 0.986112 15.7331C0.981372 17.6333 1.36165 19.5148 2.10401 21.2641C2.46085 22.1104 2.8998 22.9204 3.41454 23.6799C4.95589 25.9637 7.12681 27.7512 9.66401 28.8257C10.5241 29.1901 11.4186 29.4674 12.334 29.6531C15.151 30.2363 18.0788 29.9479 20.7276 28.8257C21.573 28.4681 22.3816 28.0293 23.1418 27.5152C23.8966 27.0052 24.6008 26.4257 25.245 25.7831C26.9103 24.1211 28.1361 22.071 28.8122 19.8175C29.4883 17.564 29.595 15.1778 29.1197 12.8736Z" fill="black"/>
</svg>
