<svg width="30" height="30" viewBox="0 0 30 30" fill="none" xmlns="http://www.w3.org/2000/svg">
<path d="M21.979 25.7968C21.8542 25.0658 21.2068 21.5021 19.6168 17.13C23.5326 16.5032 26.9274 17.5784 27.18 17.6605C26.9159 19.3004 26.3181 20.8687 25.4235 22.2682C24.5288 23.6677 23.3565 24.8687 21.979 25.7968ZM15.1974 27.87C12.3742 27.8741 9.63862 26.8898 7.46527 25.0879C7.62632 25.2174 7.73842 25.2995 7.73842 25.2995C7.73842 25.2995 10.0642 20.2263 17.2611 17.7205C17.2863 17.7079 17.3147 17.7047 17.3416 17.6937C19.05 22.1305 19.7542 25.8458 19.9358 26.9068C18.4358 27.5432 16.8253 27.87 15.199 27.87H15.1974ZM3.06158 15.7326C3.06158 15.6032 3.0679 15.4768 3.07106 15.3489C3.28579 15.3537 9.28263 15.491 15.529 13.62C15.8763 14.2989 16.2079 14.9937 16.5142 15.6837C16.3532 15.727 16.1937 15.7755 16.0358 15.8289C9.4879 17.9447 6.16579 23.8358 6.16579 23.8358L6.17053 23.8421C4.16484 21.6176 3.05639 18.7278 3.06 15.7326H3.06158ZM10.0184 4.75894C11.6539 7.00112 13.159 9.3355 14.5263 11.7505C8.7 13.2979 3.64106 13.2379 3.32211 13.2316C3.70856 11.3985 4.51404 9.67974 5.67549 8.20985C6.83694 6.73996 8.32441 5.55884 10.0184 4.75894ZM12.2905 3.94894L12.289 3.95368L12.2511 3.95999L12.2905 3.95052V3.94894ZM23.2105 6.62684C23.179 6.6742 21.4516 9.30315 16.8695 11.0195C15.5218 8.55909 14.0078 6.19358 12.3379 3.93947C14.233 3.47633 16.2121 3.47885 18.106 3.94683C19.9999 4.41481 21.7524 5.33434 23.2137 6.62684H23.2105ZM27.3268 15.611C27.1532 15.5732 23.0463 14.6889 18.8763 15.2132L18.6142 14.5895C18.3616 13.9958 18.0916 13.4084 17.8074 12.8274C22.5979 10.8695 24.5447 8.05894 24.5668 8.02736C26.3284 10.1645 27.3027 12.8416 27.3268 15.611ZM29.1174 12.8732C28.3694 9.23158 26.2231 6.02858 23.1395 3.9521C22.3801 3.43824 21.5726 2.99933 20.7284 2.64157C18.9774 1.90308 17.0962 1.52261 15.1958 1.52261C13.2954 1.52261 11.4142 1.90308 9.66316 2.64157C7.12604 3.71688 4.95521 5.50488 3.41369 7.78894C1.82791 10.1337 0.982486 12.9004 0.986845 15.731C0.982104 17.6313 1.36238 19.5128 2.10474 21.2621C3.54674 24.669 6.25811 27.381 9.66474 28.8237C10.5237 29.1884 11.4174 29.4663 12.3332 29.651C14.1861 30.035 16.0972 30.0437 17.9536 29.6765C19.8099 29.3093 21.5738 28.5737 23.1411 27.5132C25.4778 25.9413 27.294 23.7096 28.3583 21.1022C29.4225 18.4948 29.6868 15.6312 29.1174 12.8732Z" fill="white"/>
</svg>
