<svg width="42" height="42" viewBox="0 0 42 42" fill="none" xmlns="http://www.w3.org/2000/svg">
<path d="M21 0.957489C9.94874 0.957489 0.956238 9.94749 0.956238 21C0.956238 32.0525 9.94874 41.0425 21 41.0425C32.0512 41.0425 41.0437 32.0525 41.0437 21C41.0437 9.94749 32.0512 0.957489 21 0.957489ZM21 39.7075C10.685 39.7075 2.29374 31.315 2.29374 21C2.29374 10.685 10.685 2.29249 21 2.29249C31.315 2.29249 39.7062 10.685 39.7062 21C39.7062 31.315 31.315 39.7075 21 39.7075Z" fill="white"/>
<path d="M25.375 9.74999H22.04C17.7925 9.70749 17.25 12.3362 17.25 15.1812V17.25H15.375C15.2903 17.2387 15.2041 17.247 15.1231 17.2744C15.0421 17.3019 14.9685 17.3476 14.908 17.408C14.8476 17.4685 14.8019 17.5421 14.7745 17.623C14.7471 17.704 14.7387 17.7902 14.75 17.875V21.625C14.7387 21.7097 14.7471 21.796 14.7745 21.8769C14.8019 21.9579 14.8476 22.0315 14.908 22.092C14.9685 22.1524 15.0421 22.1981 15.1231 22.2255C15.2041 22.2529 15.2903 22.2613 15.375 22.25H17.25V31.625C17.2399 31.7098 17.2492 31.7959 17.2772 31.8766C17.3053 31.9573 17.3514 32.0306 17.412 32.0908C17.4726 32.1511 17.5461 32.1967 17.627 32.2243C17.7079 32.2519 17.794 32.2607 17.8788 32.25H21.6975C22.0663 32.2925 22.365 31.9937 22.2475 31.625L22.25 22.25H25.375C25.4598 22.2613 25.546 22.2529 25.627 22.2255C25.708 22.1981 25.7815 22.1524 25.842 22.092C25.9024 22.0315 25.9482 21.9579 25.9756 21.8769C26.003 21.796 26.0113 21.7097 26 21.625V17.875C26.0113 17.7902 26.003 17.704 25.9756 17.623C25.9482 17.5421 25.9024 17.4685 25.842 17.408C25.7815 17.3476 25.708 17.3019 25.627 17.2744C25.546 17.247 25.4598 17.2387 25.375 17.25H22.2463L22.25 15.375C22.3713 14.5762 22.3713 14.7062 23.1125 14.75H25.3488C25.5225 14.7112 25.7075 14.7325 25.8375 14.6062C25.9675 14.48 26.0425 14.3075 25.9988 14.125V10.375C26.0103 10.2903 26.0021 10.2041 25.9749 10.1231C25.9476 10.0421 25.9021 9.9685 25.8417 9.90801C25.7813 9.84751 25.7078 9.80178 25.6268 9.77437C25.5459 9.74697 25.4597 9.73862 25.375 9.74999ZM24.7063 13.43L23.1388 13.37C21.1975 13.37 21.035 14.4237 21.035 15.5025L21.03 17.8725C21.0299 17.9603 21.047 18.0472 21.0805 18.1283C21.1139 18.2094 21.1631 18.2832 21.2251 18.3453C21.2871 18.4074 21.3607 18.4567 21.4418 18.4903C21.5229 18.5239 21.6098 18.5412 21.6975 18.5412H24.75V20.9562H21.7C21.5229 20.9562 21.353 21.0265 21.2276 21.1517C21.1022 21.2768 21.0316 21.4466 21.0313 21.6237L21.03 31H18.5V21.625C18.5 21.2562 18.2488 20.9575 17.8788 20.9575H16V18.5425H17.8788C17.9665 18.5429 18.0535 18.5259 18.1346 18.4924C18.2157 18.4589 18.2893 18.4097 18.3513 18.3475C18.4763 18.2212 18.4988 18.0512 18.4988 17.8737V15.18C18.4988 12.3775 19.065 11.0425 22.0388 11.0425H24.705L24.7063 13.43Z" fill="white"/>
</svg>
