<svg width="30" height="30" viewBox="0 0 30 30" fill="none" xmlns="http://www.w3.org/2000/svg">
<path d="M22.4875 1.99499C21.2265 1.86127 19.9593 1.79618 18.6912 1.79999C14.4875 1.79999 11.875 4.47749 11.875 8.78749V11.7137H8.34375C8.17799 11.7137 8.01902 11.7796 7.90181 11.8968C7.7846 12.014 7.71875 12.173 7.71875 12.3387V17.1512C7.71875 17.317 7.7846 17.476 7.90181 17.5932C8.01902 17.7104 8.17799 17.7762 8.34375 17.7762H11.875V27.4262C11.875 27.592 11.9408 27.751 12.0581 27.8682C12.1753 27.9854 12.3342 28.0512 12.5 28.0512H17.4725C17.6383 28.0512 17.7972 27.9854 17.9144 27.8682C18.0317 27.751 18.0975 27.592 18.0975 27.4262V17.7762H21.6175C21.7692 17.7763 21.9158 17.7212 22.0299 17.6211C22.144 17.5211 22.2178 17.3829 22.2375 17.2325L22.8588 12.42C22.8703 12.3318 22.8629 12.2421 22.837 12.157C22.8112 12.0719 22.7674 11.9933 22.7087 11.9264C22.6501 11.8596 22.5778 11.806 22.4967 11.7693C22.4157 11.7326 22.3277 11.7137 22.2388 11.7137H18.0975V9.26499C18.0975 8.05249 18.3412 7.54624 19.8575 7.54624H22.4062C22.572 7.54624 22.731 7.4804 22.8482 7.36318C22.9654 7.24597 23.0312 7.087 23.0312 6.92124V2.61499C23.0313 2.46325 22.9762 2.31667 22.8761 2.20259C22.7761 2.08851 22.638 2.01472 22.4875 1.99499ZM21.7812 6.29499L19.8563 6.29624C17.16 6.29624 16.8475 7.99124 16.8475 9.26499V12.34C16.8475 12.5055 16.9132 12.6643 17.0301 12.7815C17.1471 12.8987 17.3057 12.9647 17.4713 12.965H21.5287L21.0675 16.5275H17.4725C17.3067 16.5275 17.1478 16.5933 17.0306 16.7105C16.9133 16.8278 16.8475 16.9867 16.8475 17.1525V26.8H13.125V17.1525C13.125 16.9867 13.0592 16.8278 12.9419 16.7105C12.8247 16.5933 12.6658 16.5275 12.5 16.5275H8.97V12.965H12.5C12.6658 12.965 12.8247 12.8991 12.9419 12.7819C13.0592 12.6647 13.125 12.5058 13.125 12.34V8.78749C13.125 5.19499 15.2062 3.04999 18.6912 3.04999C19.9525 3.04999 21.0912 3.11874 21.7812 3.17874V6.29499Z" fill="white"/>
</svg>
