<svg width="31" height="30" viewBox="0 0 31 30" fill="none" xmlns="http://www.w3.org/2000/svg">
<path d="M29.2323 29.3681H23.1378C22.7067 29.3681 22.3583 29.0197 22.3583 28.5886V18.7736C22.3583 15.4075 20.622 15.4075 20.0492 15.4075C18.5079 15.4075 17.8523 16.624 17.6397 17.1496C17.5393 17.3859 17.4921 17.7874 17.4921 18.3485V28.5946C17.4921 29.0257 17.1437 29.3741 16.7126 29.3741H10.6122C10.4055 29.3741 10.2047 29.2914 10.0571 29.1438C9.90946 28.9962 9.82679 28.7953 9.83267 28.5886C9.83267 28.4233 9.91535 11.9646 9.83267 10.2815C9.82087 10.0689 9.89763 9.86225 10.0453 9.7087C10.1929 9.55516 10.3937 9.46656 10.6122 9.46656H16.7126C17.1437 9.46656 17.4921 9.81496 17.4921 10.2461V10.7067C18.5197 9.79135 20.0019 9.03543 22.2106 9.03543C27.0945 9.03543 30.0118 12.4134 30.0118 18.0709V28.5886C30.0118 29.0197 29.6633 29.3681 29.2323 29.3681ZM23.9173 27.8091L28.4587 27.809V18.0708C28.4587 13.3168 26.185 10.5944 22.2165 10.5944C19.5649 10.5944 18.2776 11.9172 17.4685 13.1279C17.374 13.4468 17.0728 13.683 16.7185 13.683H16.6772C16.3937 13.683 16.1338 13.5295 15.9981 13.2815C15.8918 13.0865 15.8681 12.8621 15.939 12.6554V11.0196H11.4095C11.4508 14.2736 11.4095 24.8032 11.3977 27.8032H15.9331V18.3425C15.9331 17.5571 16.0158 16.9901 16.1929 16.559C16.878 14.8642 18.3189 13.8425 20.0433 13.8425C22.5 13.8425 23.9114 15.6378 23.9114 18.7677V27.809H23.9174L23.9173 27.8091ZM7.24016 29.368H1.13976C0.708661 29.368 0.360262 29.0196 0.360262 28.5885V10.246C0.360262 9.8149 0.708661 9.46648 1.13976 9.46648H7.24016C7.67127 9.46648 8.01967 9.8149 8.01967 10.246V28.5885C8.01967 29.0196 7.67127 29.368 7.24016 29.368V29.368ZM1.91932 27.809H6.46063V11.0255H1.91935L1.91932 27.809ZM4.19291 8.52156L4.15154 8.52153C1.748 8.52153 -3.05176e-05 6.85618 -3.05176e-05 4.56485C-3.05176e-05 2.27943 1.77753 0.614044 4.23422 0.614044C6.64957 0.614044 8.37401 2.23214 8.42127 4.54712C8.42127 6.85618 6.64371 8.52156 4.19291 8.52156ZM4.23422 2.17902C2.63382 2.17902 1.55903 3.14163 1.55903 4.57079C1.55903 5.97628 2.62204 6.9625 4.15157 6.9625H4.19288C5.78739 6.9625 6.86218 5.99989 6.86218 4.57076C6.83265 3.12391 5.7992 2.17902 4.23422 2.17902Z" fill="white"/>
</svg>
