<svg width="30" height="30" viewBox="0 0 30 30" fill="none" xmlns="http://www.w3.org/2000/svg">
<path d="M9.37501 11.25H4.37501C4.20925 11.25 4.05028 11.3158 3.93307 11.4331C3.81586 11.5503 3.75001 11.7092 3.75001 11.875V26.875C3.75001 27.0408 3.81586 27.1997 3.93307 27.3169C4.05028 27.4341 4.20925 27.5 4.37501 27.5H9.37501C9.54077 27.5 9.69974 27.4341 9.81695 27.3169C9.93416 27.1997 10 27.0408 10 26.875V11.875C10 11.7092 9.93416 11.5503 9.81695 11.4331C9.69974 11.3158 9.54077 11.25 9.37501 11.25ZM8.75001 26.25H5.00001V12.5H8.75001V26.25ZM22.5 11.25C21.1438 11.25 19.825 11.6975 18.75 12.5237V11.875C18.75 11.7092 18.6842 11.5503 18.567 11.4331C18.4497 11.3158 18.2908 11.25 18.125 11.25H13.125C12.9593 11.25 12.8003 11.3158 12.6831 11.4331C12.5659 11.5503 12.5 11.7092 12.5 11.875V26.875C12.5 27.0408 12.5659 27.1997 12.6831 27.3169C12.8003 27.4341 12.9593 27.5 13.125 27.5H18.125C18.2908 27.5 18.4497 27.4341 18.567 27.3169C18.6842 27.1997 18.75 27.0408 18.75 26.875V20C18.75 19.5027 18.9476 19.0258 19.2992 18.6742C19.6508 18.3225 20.1277 18.125 20.625 18.125C21.1223 18.125 21.5992 18.3225 21.9508 18.6742C22.3025 19.0258 22.5 19.5027 22.5 20V26.875C22.5 27.0408 22.5659 27.1997 22.6831 27.3169C22.8003 27.4341 22.9593 27.5 23.125 27.5H28.125C28.2908 27.5 28.4497 27.4341 28.567 27.3169C28.6842 27.1997 28.75 27.0408 28.75 26.875V17.5C28.748 15.843 28.0889 14.2544 26.9172 13.0828C25.7456 11.9111 24.157 11.252 22.5 11.25ZM27.5 26.25H23.75V20C23.75 19.1712 23.4208 18.3763 22.8347 17.7903C22.2487 17.2042 21.4538 16.875 20.625 16.875C19.7962 16.875 19.0014 17.2042 18.4153 17.7903C17.8293 18.3763 17.5 19.1712 17.5 20V26.25H13.75V12.5H17.5V14.0037C17.5 14.1332 17.5401 14.2595 17.615 14.3651C17.6898 14.4707 17.7955 14.5505 17.9177 14.5935C18.0398 14.6364 18.1722 14.6404 18.2967 14.6048C18.4211 14.5693 18.5315 14.496 18.6125 14.395C19.2544 13.5813 20.1342 12.9883 21.1293 12.6985C22.1243 12.4088 23.185 12.4367 24.1634 12.7785C25.1418 13.1204 25.9891 13.759 26.5872 14.6053C27.1854 15.4517 27.5044 16.4636 27.5 17.5V26.25ZM7.33501 2.5025C7.18811 2.493 7.04077 2.49217 6.89376 2.5C6.42597 2.46817 5.95663 2.53273 5.51481 2.68967C5.07298 2.84662 4.66809 3.09261 4.3252 3.41241C3.98232 3.73221 3.70875 4.119 3.52144 4.54883C3.33413 4.97866 3.23706 5.44238 3.23626 5.91125C3.23238 6.37522 3.32386 6.83504 3.50502 7.2622C3.68618 7.68936 3.95316 8.07476 4.2894 8.39448C4.62565 8.7142 5.024 8.96144 5.45974 9.12086C5.89548 9.28028 6.35933 9.34849 6.82251 9.32125H6.85751C7.30524 9.3526 7.75476 9.29546 8.1804 9.15309C8.60604 9.01072 8.99947 8.78591 9.33823 8.49149C9.67699 8.19707 9.95445 7.83881 10.1547 7.43716C10.3551 7.03551 10.4743 6.59835 10.5056 6.15062C10.537 5.7029 10.4799 5.25338 10.3375 4.82774C10.1951 4.40209 9.9703 4.00866 9.67588 3.6699C9.38146 3.33114 9.0232 3.05369 8.62155 2.85339C8.2199 2.65308 7.78274 2.53385 7.33501 2.5025ZM7.29126 8.075C7.1471 8.08833 7.00251 8.08708 6.85751 8.07125H6.82251C6.52167 8.09386 6.21942 8.0535 5.93506 7.95273C5.6507 7.85197 5.39047 7.69302 5.17099 7.48603C4.95151 7.27904 4.77761 7.02856 4.66038 6.75058C4.54315 6.4726 4.48517 6.17323 4.49014 5.87158C4.49512 5.56993 4.56293 5.27263 4.68926 4.99867C4.81559 4.72471 4.99766 4.48009 5.22385 4.28045C5.45003 4.08081 5.71536 3.93052 6.00289 3.83919C6.29042 3.74785 6.59383 3.71748 6.89376 3.75C7.46729 3.69729 8.03827 3.87457 8.48109 4.24284C8.92391 4.61112 9.2023 5.14022 9.25501 5.71375C9.30772 6.28728 9.13044 6.85826 8.76217 7.30108C8.39389 7.7439 7.86479 8.02229 7.29126 8.075Z" fill="white"/>
</svg>
