<svg width="31" height="30" viewBox="0 0 31 30" fill="none" xmlns="http://www.w3.org/2000/svg">
<path d="M29.2323 29.368H23.1378C22.7067 29.368 22.3583 29.0196 22.3583 28.5885V18.7736C22.3583 15.4074 20.622 15.4074 20.0492 15.4074C18.5079 15.4074 17.8523 16.624 17.6397 17.1496C17.5393 17.3859 17.4921 17.7874 17.4921 18.3485V28.5945C17.4921 29.0256 17.1437 29.374 16.7126 29.374H10.6122C10.4055 29.374 10.2047 29.2913 10.0571 29.1438C9.90946 28.9962 9.82679 28.7953 9.83268 28.5886C9.83268 28.4233 9.91535 11.9646 9.83268 10.2815C9.82087 10.0689 9.89763 9.86222 10.0453 9.70867C10.1929 9.55513 10.3937 9.46653 10.6122 9.46653H16.7126C17.1437 9.46653 17.4921 9.81493 17.4921 10.246V10.7067C18.5197 9.79132 20.0019 9.0354 22.2106 9.0354C27.0945 9.0354 30.0118 12.4133 30.0118 18.0708V28.5885C30.0118 29.0196 29.6633 29.368 29.2323 29.368ZM23.9173 27.809L28.4587 27.8089V18.0707C28.4587 13.3168 26.185 10.5944 22.2165 10.5944C19.5649 10.5944 18.2776 11.9172 17.4685 13.1279C17.374 13.4467 17.0728 13.683 16.7185 13.683H16.6772C16.3937 13.683 16.1338 13.5294 15.9981 13.2814C15.8918 13.0865 15.8681 12.8621 15.939 12.6554V11.0196H11.4095C11.4508 14.2736 11.4095 24.8031 11.3977 27.8031H15.9331V18.3425C15.9331 17.557 16.0158 16.9901 16.1929 16.559C16.878 14.8641 18.3189 13.8425 20.0433 13.8425C22.5 13.8425 23.9114 15.6378 23.9114 18.7677V27.809H23.9174L23.9173 27.809ZM7.24016 29.3679H1.13976C0.708661 29.3679 0.360262 29.0195 0.360262 28.5884V10.246C0.360262 9.81487 0.708661 9.46645 1.13976 9.46645H7.24016C7.67127 9.46645 8.01967 9.81487 8.01967 10.2459V28.5885C8.01967 29.0196 7.67127 29.368 7.24016 29.368V29.3679ZM1.91932 27.809H6.46063V11.0254H1.91935L1.91932 27.809ZM4.19291 8.52153L4.15154 8.5215C1.748 8.5215 -3.05176e-05 6.85615 -3.05176e-05 4.56481C-3.05176e-05 2.27939 1.77753 0.614014 4.23422 0.614014C6.64957 0.614014 8.37401 2.23211 8.42127 4.54709C8.42127 6.85615 6.64371 8.52153 4.19291 8.52153ZM4.23422 2.17899C2.63382 2.17899 1.55903 3.1416 1.55903 4.57076C1.55903 5.97625 2.62204 6.96247 4.15157 6.96247H4.19288C5.78739 6.96247 6.86218 5.99986 6.86218 4.57073C6.83265 3.12388 5.7992 2.17899 4.23422 2.17899Z" fill="black"/>
</svg>
