<svg width="42" height="42" viewBox="0 0 42 42" fill="none" xmlns="http://www.w3.org/2000/svg">
<path d="M25.3938 15.94C24.5463 15.94 23.9188 16.1537 23.4275 16.4237C23.3488 16.1437 23.09 15.9387 22.785 16H19.055C18.6863 15.9387 18.3875 16.2375 18.5013 16.625V30.375C18.3875 30.725 18.6863 31.025 19.055 31H22.785C23.1538 31.025 23.4525 30.725 23.4525 30.3562L23.4513 22.0462C23.45 22.0425 23.4363 21.645 23.6875 21.3712C23.8888 21.1537 24.235 21.0425 24.7138 21.0425C25.5113 21.0425 25.8663 21.3687 25.9988 22.0987V30.3562C25.8675 30.725 26.1663 31.025 26.535 31H30.4663C30.835 31.025 31.1338 30.725 31.0013 30.3562V21.8212C31.1325 17.4812 28.0413 15.94 25.3938 15.94ZM29.7975 29.75H27.2025V22.0987C27.2025 20.6225 26.2488 19.7075 24.715 19.7075C23.8475 19.7075 23.1725 19.9625 22.7075 20.465C22.0613 21.165 22.1113 22.0525 22.25 22.25V29.75H19.7225V17.275H22.1175V17.695C22.1165 17.8201 22.1509 17.943 22.2166 18.0494C22.2823 18.1559 22.3767 18.2417 22.489 18.2969C22.6013 18.3521 22.7268 18.3746 22.8513 18.3616C22.9757 18.3487 23.094 18.3009 23.1925 18.2237L23.3675 18.0887C23.8738 17.69 24.3975 17.2762 25.395 17.2762C26.4275 17.2762 29.7988 17.605 29.7988 21.8225L29.7975 29.75ZM14.75 9.70749C13.3475 9.70749 12.2075 10.8475 12.2075 12.25C12.2075 13.6525 13.3475 14.7925 14.75 14.7925C16.1525 14.7925 17.2925 13.6525 17.2925 12.25C17.2925 10.8475 16.1525 9.70749 14.75 9.70749ZM14.75 13.4575C14.085 13.4575 13.5425 12.915 13.5425 12.25C13.5425 11.585 14.085 11.0425 14.75 11.0425C15.415 11.0425 15.9575 11.585 15.9575 12.25C15.9575 12.915 15.415 13.4575 14.75 13.4575ZM16.535 15.9387H12.825C12.4563 15.9387 12.1575 16.2375 12.25 16.625V30.375C12.1575 30.725 12.4563 31.025 12.825 31H16.535C16.9038 31.025 17.2025 30.725 17.2025 30.3562V16.6062C17.2025 16.4292 17.1322 16.2594 17.007 16.1342C16.8818 16.0091 16.7121 15.9387 16.535 15.9387ZM16 29.75H13.4925V17.275H16V29.75Z" fill="white"/>
<path d="M21 0.957489C9.94752 0.957489 0.95752 9.94749 0.95752 21C0.95752 32.0525 9.94752 41.0425 21 41.0425C32.0525 41.0425 41.0425 32.0525 41.0425 21C41.0425 9.94749 32.0525 0.957489 21 0.957489ZM21 39.7075C10.685 39.7075 2.29252 31.315 2.29252 21C2.29252 10.685 10.685 2.29249 21 2.29249C31.315 2.29249 39.7075 10.685 39.7075 21C39.7075 31.315 31.315 39.7075 21 39.7075Z" fill="white"/>
</svg>
