<svg width="42" height="42" viewBox="0 0 42 42" fill="none" xmlns="http://www.w3.org/2000/svg">
<path d="M21 0.957504C9.94874 0.957504 0.956238 9.9475 0.956238 21C0.956238 32.0525 9.94874 41.0425 21 41.0425C32.0512 41.0425 41.0437 32.0525 41.0437 21C41.0437 9.9475 32.0512 0.957504 21 0.957504ZM21 39.7075C10.685 39.7075 2.29374 31.315 2.29374 21C2.29374 10.685 10.685 2.2925 21 2.2925C31.315 2.2925 39.7062 10.685 39.7062 21C39.7062 31.315 31.315 39.7075 21 39.7075Z" fill="white"/>
<path d="M31.9925 14.8075C32.1313 14.5509 32.2456 14.2818 32.3337 14.0038C32.3746 13.8748 32.3755 13.7365 32.3361 13.607C32.2968 13.4776 32.2191 13.3632 32.1133 13.2788C32.0076 13.1944 31.8787 13.1441 31.7438 13.1345C31.6088 13.1249 31.4741 13.1565 31.3575 13.225C30.7173 13.6061 30.0238 13.8896 29.3 14.0663C28.4216 13.2734 27.2808 12.8339 26.0975 12.8325C25.4546 12.833 24.8185 12.9633 24.2272 13.2156C23.6359 13.4679 23.1017 13.8369 22.6565 14.3007C22.2113 14.7645 21.8643 15.3133 21.6364 15.9144C21.4085 16.5155 21.3042 17.1564 21.33 17.7988C18.5187 17.445 15.9516 16.0224 14.1612 13.8263C14.0926 13.7431 14.005 13.6776 13.9057 13.6356C13.8064 13.5935 13.6984 13.576 13.5909 13.5846C13.4834 13.5932 13.3796 13.6276 13.2883 13.6849C13.1969 13.7422 13.1208 13.8207 13.0662 13.9138C12.6559 14.6173 12.4329 15.4143 12.4184 16.2286C12.404 17.0429 12.5986 17.8474 12.9837 18.565C12.8892 18.5801 12.7984 18.6132 12.7162 18.6625C12.6151 18.7269 12.5318 18.8157 12.4741 18.9208C12.4165 19.0259 12.3862 19.1439 12.3862 19.2638C12.3862 20.6825 13.0175 21.985 14.035 22.87L13.9912 22.9138C13.914 23.0004 13.8608 23.1058 13.8372 23.2195C13.8135 23.3331 13.82 23.451 13.8562 23.5613C14.0687 24.223 14.4231 24.8304 14.8946 25.341C15.3662 25.8516 15.9435 26.2531 16.5862 26.5175C15.2658 27.162 13.7879 27.4132 12.3287 27.2413C12.1787 27.226 12.0279 27.2609 11.8999 27.3405C11.7719 27.4201 11.6739 27.54 11.6212 27.6813C11.5707 27.8236 11.5698 27.9788 11.6185 28.1218C11.6673 28.2647 11.763 28.387 11.89 28.4688C13.8737 29.742 16.1815 30.4184 18.5387 30.4175C26.2637 30.4175 30.8812 24.1425 30.8812 18.0763L30.88 17.8713C31.629 17.2871 32.2793 16.5865 32.8062 15.7963C32.8861 15.6768 32.9254 15.5349 32.9182 15.3914C32.9111 15.2479 32.858 15.1105 32.7667 14.9996C32.6754 14.8887 32.5508 14.8101 32.4113 14.7755C32.2719 14.7409 32.125 14.7521 31.9925 14.8075ZM29.8112 17.0013C29.7209 17.0669 29.6483 17.1539 29.5999 17.2544C29.5515 17.355 29.5287 17.466 29.5337 17.5775C29.5412 17.7433 29.545 17.9092 29.545 18.075C29.545 23.485 25.4287 29.0813 18.54 29.0813C17.3115 29.0809 16.0917 28.8747 14.9312 28.4713C16.3203 28.2037 17.6253 27.608 18.7375 26.7338C18.8457 26.6484 18.9249 26.5318 18.9643 26.3998C19.0037 26.2677 19.0013 26.1268 18.9575 25.9961C18.9138 25.8655 18.8307 25.7516 18.7197 25.6699C18.6087 25.5883 18.4752 25.5429 18.3375 25.54C17.7985 25.5299 17.2694 25.3932 16.793 25.1409C16.3166 24.8885 15.9062 24.5277 15.595 24.0875C15.9117 24.0658 16.2208 24.0142 16.5225 23.9325C16.6683 23.8935 16.7966 23.8062 16.8864 23.6849C16.9762 23.5636 17.0222 23.4154 17.017 23.2646C17.0118 23.1138 16.9556 22.9692 16.8576 22.8544C16.7596 22.7396 16.6256 22.6614 16.4775 22.6325C15.8687 22.5088 15.305 22.2219 14.8468 21.8024C14.3886 21.3829 14.0531 20.8468 13.8762 20.2513C14.2096 20.3354 14.5479 20.3833 14.8912 20.395C15.185 20.3938 15.4575 20.2138 15.5487 19.9313C15.64 19.6488 15.5325 19.3375 15.2837 19.1725C14.6961 18.7801 14.2437 18.2162 13.988 17.5575C13.7324 16.8988 13.6859 16.1773 13.855 15.4913C16.0261 17.7195 18.9581 19.0462 22.065 19.2063C22.285 19.2075 22.4775 19.1288 22.6112 18.9675C22.745 18.8063 22.7962 18.5925 22.7487 18.3875C22.5778 17.6513 22.6542 16.8792 22.9663 16.1908C23.2784 15.5024 23.8086 14.936 24.475 14.5793C25.1414 14.2226 25.9068 14.0955 26.6527 14.2177C27.3986 14.3398 28.0834 14.7044 28.6012 15.255C28.6792 15.3373 28.7766 15.3987 28.8846 15.4334C28.9925 15.4682 29.1074 15.4751 29.2187 15.4538C29.4254 15.4121 29.6292 15.3642 29.83 15.31C29.7387 15.3772 29.6445 15.4401 29.5475 15.4988C29.4179 15.5782 29.3192 15.6993 29.2676 15.8424C29.2161 15.9854 29.2149 16.1417 29.2641 16.2855C29.3133 16.4293 29.41 16.5521 29.5383 16.6336C29.6666 16.7151 29.8189 16.7504 29.97 16.7338L30.1975 16.705C30.072 16.8079 29.9432 16.9067 29.8112 17.0013Z" fill="white"/>
</svg>
