<svg width="30" height="30" viewBox="0 0 30 30" fill="none" xmlns="http://www.w3.org/2000/svg">
<path d="M24.8912 6.6525C25.127 6.65447 25.3578 6.7209 25.5585 6.84459C25.7592 6.96829 25.9223 7.14454 26.0301 7.35427C26.1378 7.56399 26.1862 7.7992 26.1699 8.03442C26.1535 8.26964 26.0732 8.49592 25.9375 8.68875L24.635 10.54C24.555 16.8975 22.4287 21.2138 18.315 23.37C16.3549 24.345 14.1888 24.8334 12 24.7938C9.29356 24.8562 6.61909 24.1988 4.24999 22.8888C4.09062 22.7816 3.96744 22.6288 3.89671 22.4502C3.82597 22.2717 3.81099 22.076 3.85374 21.8888C3.89409 21.6989 3.99088 21.5257 4.13142 21.3919C4.27195 21.258 4.44967 21.1698 4.64124 21.1388C6.2328 20.9165 7.80005 20.5457 9.32249 20.0313C2.49999 16.875 3.98749 9.78 4.63749 7.60125C4.70086 7.38495 4.82001 7.18911 4.98298 7.03341C5.14595 6.8777 5.34701 6.7676 5.56598 6.71416C5.78495 6.66072 6.01412 6.66581 6.2305 6.72892C6.44688 6.79204 6.64285 6.91096 6.79874 7.07375C8.79573 9.13162 11.4436 10.4346 14.2925 10.7613C14.2421 9.99569 14.3605 9.22841 14.6394 8.51367C14.9182 7.79893 15.3507 7.15417 15.9062 6.625C16.8689 5.71146 18.1467 5.20425 19.4738 5.20891C20.8009 5.21357 22.0751 5.72973 23.0312 6.65L24.8912 6.6525ZM5.65124 22.2425C7.97874 23.3325 13.4337 24.5163 17.735 22.2625C21.4287 20.3263 23.33 16.3475 23.3862 10.4363C23.3887 10.2408 23.4506 10.0507 23.5637 9.89125L24.915 7.96875L24.8637 7.9025C24.2162 7.89375 23.5775 7.885 22.9262 7.9025C22.6724 7.89612 22.4295 7.79798 22.2425 7.62625C21.5229 6.89686 20.546 6.47884 19.5215 6.46201C18.4971 6.44518 17.5069 6.83089 16.7637 7.53625C16.2861 7.98994 15.929 8.55557 15.725 9.18197C15.5209 9.80836 15.4762 10.4758 15.595 11.1238C15.6164 11.2445 15.6102 11.3685 15.5768 11.4864C15.5435 11.6044 15.4839 11.7133 15.4025 11.805C15.3243 11.8974 15.2245 11.9691 15.112 12.0137C14.9995 12.0584 14.8778 12.0747 14.7575 12.0613C11.3989 11.8273 8.24521 10.3605 5.90249 7.9425C5.06499 10.54 4.00249 16.81 10.7387 19.2738C10.8807 19.3244 11.0051 19.4146 11.0973 19.5338C11.1895 19.653 11.2455 19.7962 11.2587 19.9463C11.2732 20.0939 11.2457 20.2426 11.1794 20.3753C11.113 20.508 11.0105 20.6193 10.8837 20.6963C9.23747 21.4985 7.46913 22.021 5.65124 22.2425Z" fill="white"/>
</svg>
